<?xml version="1.0" encoding="UTF-8"?>
<svg id="Layer_1" xmlns="http://www.w3.org/2000/svg" version="1.1" viewBox="0 0 174.21 173.95">
  <!-- Generator: Adobe Illustrator 29.6.1, SVG Export Plug-In . SVG Version: 2.1.1 Build 9)  -->
  <defs>
    <style>
      .st0 {
        fill: #fff;
      }
    </style>
  </defs>
  <path class="st0" d="M81.49.19c65.59-4.28,112.35,63.68,84.53,123.53-27.87,59.95-110.39,68.05-149.34,14.48C-23.63,82.75,13.45,4.63,81.49.19ZM79.99,2.19C21.64,6.55-14.31,68.89,9.67,122.22c27.67,61.57,114.13,67.26,149.64,9.78C196.21,72.25,149.58-3,79.99,2.19Z"/>
  <path class="st0" d="M112.09,96.54l-9.02,2.76c-1.25-.54-4.9-6.75-6.45-8.04-1.3-1.08-2.71-.68-3.89.51l1.82,10.74-8.44,2.53-5.3-32.99c6.92-2.32,21.64-10.62,25.87-.84,2.36,5.46,1.28,10.63-2.56,15.03l7.97,10.31ZM91.62,84.03c3.87-.25,9.08-3.05,6.85-7.61-1.8-3.68-5.53-.56-8.37-.37l1.52,7.98Z"/>
  <path class="st0" d="M36.6,98.05c-.35-4.98-9.6-1.63-7.76,2.5,1.11,2.22,8.56.33,10.95.55,6.46.59,8.5,5.23,7.81,11.2-1.26,10.77-25.96,18.44-26.46,2.79l7.95-2.54c.73,7.35,13.21,1.04,9.27-2.51-2.71-2.44-13.7,3.3-17.53-3.46-7.7-13.57,20.02-28.12,24.15-11.75l-8.37,3.23Z"/>
  <path class="st0" d="M78.6,86.04l-7.79,2.5c-1.48-.05-1.75-3.96-5.83-3.39-9.31,1.3-7.55,18.32-2.12,19.39,4.87.95,8.1-2.64,9.06-7.03l8.17-2.96c1.3,11.28-11.1,21.48-21.85,17.6-8.89-3.21-10.68-17.31-7.24-24.95,4.96-11.03,24.17-15.69,27.6-1.16Z"/>
  <polygon class="st0" points="143.59 50.54 147.6 76.05 160.59 72.04 161.63 79.25 140.88 86.52 135.07 53.37 143.59 50.54"/>
  <path class="st0" d="M118.59,59.04l4.24,25.52c.61.8.6.23,1.09.07,3.91-1.27,7.78-2.77,11.67-4.09l1.03,7.17-21.02,7.33-5.54-33.18,8.53-2.83Z"/>
</svg>